<?xml version="1.0" encoding="utf-8"?>
<!-- Generator: Adobe Illustrator 25.0.0, SVG Export Plug-In . SVG Version: 6.00 Build 0)  -->
<svg version="1.1" id="Layer_1" xmlns="http://www.w3.org/2000/svg" xmlns:xlink="http://www.w3.org/1999/xlink" x="0px" y="0px"
	 width="80px" height="80px" viewBox="0 0 80 80" style="enable-background:new 0 0 80 80;" xml:space="preserve">
<style type="text/css">
	.st0{fill:#A9894B;}
</style>
<g>
	<polygon class="st0" points="60.3,58 31.6,23.2 12.5,0 12.5,12.8 12.5,25.7 12.5,66.7 20.9,66.7 21,66.7 46.3,66.7 39.2,58 21,58 
		21,36 21,23.2 49.8,58 56.9,66.7 67.5,66.7 	"/>
	<polygon class="st0" points="52.1,21.5 67.5,40.1 67.5,27.3 55.6,12.9 54.6,12.9 45,12.9 39.4,12.9 28.8,12.9 23.1,12.9 20.3,12.9 
		12.5,12.9 19.7,21.5 48.4,56.4 67.5,79.5 67.5,66.7 59,56.4 30.2,21.5 30.1,21.4 35.8,21.4 35.9,21.5 64.6,56.4 67.5,59.8 67.5,47 
		46.5,21.5 46.4,21.4 52,21.4 	"/>
</g>
</svg>
