<?xml version="1.0" encoding="utf-8"?>
<!-- Generator: Adobe Illustrator 25.0.0, SVG Export Plug-In . SVG Version: 6.00 Build 0)  -->
<svg version="1.1" id="Layer_1" xmlns="http://www.w3.org/2000/svg" xmlns:xlink="http://www.w3.org/1999/xlink" x="0px" y="0px"
	 width="320px" height="70.5px" viewBox="0 0 320 70.5" style="enable-background:new 0 0 320 70.5;" xml:space="preserve">
<style type="text/css">
	.st0{fill:#B1987B;}
</style>
<g>
	<path class="st0" d="M179.5,52.5h14.2V59H171V12.5h22.1V19h-13.6v12.9H191v6.6h-11.4V52.5z"/>
	<path class="st0" d="M215.8,50.5v-10c0-0.8-0.1-1.3-0.4-1.6c-0.3-0.3-0.8-0.4-1.6-0.4h-6c-5.1,0-7.6-2.5-7.6-7.4V19.8
		c0-4.9,2.7-7.3,8-7.3h8.1c5.3,0,8,2.4,8,7.3v6.5h-8.6v-5.3c0-0.8-0.1-1.3-0.4-1.6c-0.3-0.3-0.8-0.4-1.6-0.4h-2.8
		c-0.8,0-1.4,0.1-1.7,0.4c-0.3,0.3-0.4,0.8-0.4,1.6v9.4c0,0.8,0.1,1.3,0.4,1.6c0.3,0.3,0.9,0.4,1.7,0.4h5.8c5.2,0,7.7,2.4,7.7,7.2
		v12.2c0,4.9-2.7,7.3-8,7.3h-8c-5.4,0-8-2.4-8-7.3v-6.4h8.5v5.2c0,0.8,0.1,1.3,0.4,1.6c0.3,0.3,0.9,0.4,1.7,0.4h2.8
		c0.8,0,1.3-0.1,1.6-0.4C215.6,51.8,215.8,51.3,215.8,50.5z"/>
	<polygon class="st0" points="207.2,53.4 217.2,53.4 217.2,58.5 210.4,70.5 207.2,70.5 	"/>
	<path class="st0" d="M278.1,52.5h12.4V59h-20.9V12.5h8.5V52.5z"/>
	<path class="st0" d="M254.6,59l-1.8-9.7h-10.2L241,59h-8.5l9.4-46.5h11.4l9.8,46.5H254.6z M243.8,42.9h7.9l-4.1-22.3L243.8,42.9z"
		/>
	<path class="st0" d="M305.4,52.5h14.2V59h-22.7V12.5H319V19h-13.6v12.9h11.4v6.6h-11.4V52.5z"/>
	<path class="st0" d="M22.1,59.1l-1.8-9.7H10.1l-1.6,9.7H0l9.4-46.5h11.4l9.8,46.5H22.1z M11.2,43h7.9L15,20.7L11.2,43z"/>
	<path class="st0" d="M57.1,12.5h7.7v46.5h-8l-10-27.2v27.2h-7.8V12.5h8.2l9.8,26.8V12.5z"/>
	<path class="st0" d="M75.5,59.1V12.5h8.5v46.5H75.5z M101.4,12.5l-9.6,23.2l9.5,23.4h-9.1L83,35.7l9.3-23.2H101.4z"/>
	<polygon class="st0" points="154.2,51.4 128.8,20.5 111.9,0 111.9,11.4 111.9,22.7 111.9,59.1 119.3,59.1 119.4,59.1 141.8,59.1 
		135.5,51.4 119.4,51.4 119.4,31.9 119.4,20.5 144.9,51.4 151.2,59.1 160.5,59.1 	"/>
	<polygon class="st0" points="147,19.1 160.5,35.5 160.5,24.2 150,11.4 149.1,11.4 140.7,11.4 135.6,11.4 126.3,11.4 121.2,11.4 
		118.7,11.4 111.9,11.4 118.2,19.1 143.6,50 160.5,70.5 160.5,59.1 153,50 127.5,19.1 127.4,19 132.5,19 132.6,19.1 158,50 
		160.5,53 160.5,41.6 141.9,19.1 141.9,19 146.9,19 	"/>
</g>
</svg>
