<?xml version="1.0" encoding="utf-8"?>
<!-- Generator: Adobe Illustrator 25.0.0, SVG Export Plug-In . SVG Version: 6.00 Build 0)  -->
<svg version="1.1" id="Layer_1" xmlns="http://www.w3.org/2000/svg" xmlns:xlink="http://www.w3.org/1999/xlink" x="0px" y="0px"
	 width="72.4px" height="72.4px" viewBox="0 0 72.4 72.4" style="enable-background:new 0 0 72.4 72.4;" xml:space="preserve">
<style type="text/css">
	.st0{fill:#B1987B;}
</style>
<g>
	<polygon class="st0" points="54.7,52.8 28.6,21.1 11.2,0 11.2,11.7 11.2,23.4 11.2,60.7 18.9,60.7 18.9,60.7 42,60.7 35.5,52.8 
		18.9,52.8 18.9,32.8 18.9,21.1 45.1,52.8 51.6,60.7 61.2,60.7 	"/>
	<polygon class="st0" points="47.3,19.6 61.2,36.5 61.2,24.8 56.4,19 50.4,11.7 49.5,11.7 40.8,11.7 35.6,11.7 26,11.7 20.8,11.7 
		18.2,11.7 11.2,11.7 17.7,19.6 43.8,51.3 61.2,72.4 61.2,60.7 53.5,51.3 27.3,19.6 27.2,19.4 32.4,19.4 32.5,19.6 58.6,51.3 
		61.2,54.4 61.2,42.8 42.1,19.6 42,19.4 47.2,19.4 	"/>
</g>
</svg>
