<?xml version="1.0" encoding="utf-8"?>
<!-- Generator: Adobe Illustrator 25.0.0, SVG Export Plug-In . SVG Version: 6.00 Build 0)  -->
<svg version="1.1" id="Layer_1" xmlns="http://www.w3.org/2000/svg" xmlns:xlink="http://www.w3.org/1999/xlink" x="0px" y="0px"
	 width="452px" height="80px" viewBox="0 0 452 80" style="enable-background:new 0 0 452 80;" xml:space="preserve">
<style type="text/css">
	.st0{fill:#A9894B;}
</style>
<g>
	<path class="st0" d="M293.6,59.2h16v7.3h-25.6V14.1h25v7.3h-15.3v14.6h12.9v7.4h-12.9V59.2z"/>
	<path class="st0" d="M334.4,57V45.8c0-0.9-0.2-1.5-0.5-1.8c-0.3-0.3-0.9-0.5-1.8-0.5h-6.7c-5.7,0-8.6-2.8-8.6-8.3V22.3
		c0-5.5,3-8.2,9-8.2h9.2c6,0,9,2.7,9,8.2v7.3h-9.7v-6c0-0.9-0.2-1.5-0.5-1.8c-0.3-0.3-0.9-0.5-1.8-0.5h-3.2c-0.9,0-1.6,0.2-1.9,0.5
		c-0.3,0.3-0.5,0.9-0.5,1.8v10.6c0,0.9,0.2,1.5,0.5,1.8c0.3,0.3,1,0.5,1.9,0.5h6.6c5.8,0,8.7,2.7,8.7,8.2v13.7c0,5.5-3,8.2-9.1,8.2
		h-9c-6,0-9.1-2.7-9.1-8.2v-7.2h9.6V57c0,0.9,0.2,1.5,0.5,1.8c0.3,0.3,1,0.5,1.9,0.5h3.2c0.9,0,1.5-0.2,1.8-0.5
		C334.3,58.5,334.4,57.9,334.4,57z"/>
	<polygon class="st0" points="324.8,60.7 336.1,60.7 336.1,66.5 328.4,80 324.8,80 	"/>
	<path class="st0" d="M404.7,59.2h14v7.3h-23.6V14.1h9.6V59.2z"/>
	<path class="st0" d="M378.2,66.6l-2-10.9h-11.5l-1.8,10.9h-9.6l10.6-52.5h12.9l11.1,52.5H378.2z M366,48.4h8.9l-4.6-25.1L366,48.4z
		"/>
	<path class="st0" d="M435.6,59.2h16v7.3h-25.6V14.1h25v7.3h-15.3v14.6h12.9v7.4h-12.9V59.2z"/>
	<path class="st0" d="M24.9,66.7l-2-10.9H11.4L9.6,66.7H0l10.6-52.5h12.9l11.1,52.5H24.9z M12.6,48.5h8.9L17,23.4L12.6,48.5z"/>
	<path class="st0" d="M145.7,66.7l-2-10.9h-11.5l-1.8,10.9h-9.6l10.6-52.5h12.9l11.1,52.5H145.7z M133.4,48.5h8.9l-4.6-25.1
		L133.4,48.5z"/>
	<path class="st0" d="M64.4,14.2h8.7v52.5h-9L53,36v30.7h-8.8V14.2h9.2l11.1,30.2V14.2z"/>
	<path class="st0" d="M85.1,66.7V14.2h9.6v52.5H85.1z M114.4,14.2l-10.8,26.1l10.7,26.4H104L93.6,40.3l10.5-26.1H114.4z"/>
	<polygon class="st0" points="214.9,58 186.2,23.2 167.1,0 167.1,12.8 167.1,25.7 167.1,66.7 175.5,66.7 175.6,66.7 200.9,66.7 
		193.7,58 175.6,58 175.6,36 175.6,23.2 204.3,58 211.4,66.7 222,66.7 	"/>
	<polygon class="st0" points="206.7,21.5 222,40.1 222,27.3 210.1,12.9 209.1,12.9 199.6,12.9 193.9,12.9 183.3,12.9 177.6,12.9 
		174.8,12.9 167.1,12.9 174.2,21.5 202.9,56.4 222,79.5 222,66.7 213.5,56.4 184.8,21.5 184.7,21.4 190.3,21.4 190.4,21.5 
		219.2,56.4 222,59.8 222,47 201,21.5 200.9,21.4 206.6,21.4 	"/>
	<g>
		<path class="st0" d="M244.2,66.6h-10.4V14.1h12.9l8.7,29.7l8.7-29.7h12.9v52.5h-10.4V31.3l-6.8,23.9h-8.8l-6.8-23.8V66.6z"/>
	</g>
</g>
</svg>
